<mxfile host="app.diagrams.net" modified="2022-11-10T04:14:10.056Z" agent="5.0 (Macintosh; Intel Mac OS X 10_15_7) AppleWebKit/537.36 (KHTML, like Gecko) Chrome/106.0.0.0 Safari/537.36" etag="0jI5WAeDPCdgcSw66Ewk" version="20.2.2" type="github">
  <diagram id="WLW3y-v0w4gJS8v0s36L" name="第 1 页">
    <mxGraphModel dx="1186" dy="614" grid="1" gridSize="10" guides="1" tooltips="1" connect="1" arrows="1" fold="1" page="1" pageScale="1" pageWidth="827" pageHeight="1169" math="0" shadow="0">
      <root>
        <mxCell id="0" />
        <mxCell id="1" parent="0" />
        <mxCell id="36CHgqRZ8Nkn75flzNOq-12" value="&lt;font color=&quot;#ff6666&quot; style=&quot;font-size: 18px;&quot;&gt;detach&lt;/font&gt;" style="edgeStyle=orthogonalEdgeStyle;rounded=0;orthogonalLoop=1;jettySize=auto;html=1;exitX=0.5;exitY=0;exitDx=0;exitDy=0;entryX=0.5;entryY=1;entryDx=0;entryDy=0;" parent="1" source="ZY9VDm7d7qytlSBRH4lO-1" target="36CHgqRZ8Nkn75flzNOq-9" edge="1">
          <mxGeometry relative="1" as="geometry" />
        </mxCell>
        <mxCell id="36CHgqRZ8Nkn75flzNOq-18" style="edgeStyle=orthogonalEdgeStyle;rounded=0;orthogonalLoop=1;jettySize=auto;html=1;exitX=0;exitY=0.5;exitDx=0;exitDy=0;entryX=0.5;entryY=1;entryDx=0;entryDy=0;" parent="1" source="ZY9VDm7d7qytlSBRH4lO-1" target="36CHgqRZ8Nkn75flzNOq-16" edge="1">
          <mxGeometry relative="1" as="geometry" />
        </mxCell>
        <mxCell id="36CHgqRZ8Nkn75flzNOq-19" value="&lt;font color=&quot;#ff6666&quot; style=&quot;font-size: 18px;&quot;&gt;detach&lt;/font&gt;" style="edgeLabel;html=1;align=center;verticalAlign=middle;resizable=0;points=[];" parent="36CHgqRZ8Nkn75flzNOq-18" vertex="1" connectable="0">
          <mxGeometry x="-0.0914" y="1" relative="1" as="geometry">
            <mxPoint as="offset" />
          </mxGeometry>
        </mxCell>
        <mxCell id="36CHgqRZ8Nkn75flzNOq-21" style="edgeStyle=orthogonalEdgeStyle;rounded=0;orthogonalLoop=1;jettySize=auto;html=1;exitX=1;exitY=0.5;exitDx=0;exitDy=0;entryX=0.25;entryY=1;entryDx=0;entryDy=0;" parent="1" source="ZY9VDm7d7qytlSBRH4lO-1" target="36CHgqRZ8Nkn75flzNOq-20" edge="1">
          <mxGeometry relative="1" as="geometry" />
        </mxCell>
        <mxCell id="ZY9VDm7d7qytlSBRH4lO-1" value="Conformer encoder" style="rounded=0;whiteSpace=wrap;html=1;fillColor=#FFCC99;" parent="1" vertex="1">
          <mxGeometry x="200" y="630" width="110" height="40" as="geometry" />
        </mxCell>
        <mxCell id="36CHgqRZ8Nkn75flzNOq-13" style="edgeStyle=orthogonalEdgeStyle;rounded=0;orthogonalLoop=1;jettySize=auto;html=1;exitX=0.5;exitY=0;exitDx=0;exitDy=0;entryX=1;entryY=0.5;entryDx=0;entryDy=0;" parent="1" source="36CHgqRZ8Nkn75flzNOq-2" target="36CHgqRZ8Nkn75flzNOq-9" edge="1">
          <mxGeometry relative="1" as="geometry" />
        </mxCell>
        <mxCell id="36CHgqRZ8Nkn75flzNOq-2" value="Transformer LM" style="rounded=0;whiteSpace=wrap;html=1;fillColor=#FFCC99;" parent="1" vertex="1">
          <mxGeometry x="380" y="630" width="110" height="40" as="geometry" />
        </mxCell>
        <mxCell id="36CHgqRZ8Nkn75flzNOq-22" style="edgeStyle=orthogonalEdgeStyle;rounded=0;orthogonalLoop=1;jettySize=auto;html=1;exitX=0.25;exitY=0;exitDx=0;exitDy=0;entryX=0.75;entryY=1;entryDx=0;entryDy=0;" parent="1" source="36CHgqRZ8Nkn75flzNOq-3" target="36CHgqRZ8Nkn75flzNOq-20" edge="1">
          <mxGeometry relative="1" as="geometry" />
        </mxCell>
        <mxCell id="36CHgqRZ8Nkn75flzNOq-29" style="edgeStyle=orthogonalEdgeStyle;rounded=0;orthogonalLoop=1;jettySize=auto;html=1;exitX=0.75;exitY=0;exitDx=0;exitDy=0;entryX=0.5;entryY=1;entryDx=0;entryDy=0;" parent="1" source="36CHgqRZ8Nkn75flzNOq-3" target="jOlZeWT1YY6VGwIaSscc-1" edge="1">
          <mxGeometry relative="1" as="geometry" />
        </mxCell>
        <mxCell id="36CHgqRZ8Nkn75flzNOq-3" value="Stateless decoder" style="rounded=0;whiteSpace=wrap;html=1;fillColor=#FFCC99;" parent="1" vertex="1">
          <mxGeometry x="514" y="630" width="110" height="40" as="geometry" />
        </mxCell>
        <mxCell id="36CHgqRZ8Nkn75flzNOq-6" style="edgeStyle=orthogonalEdgeStyle;rounded=0;orthogonalLoop=1;jettySize=auto;html=1;exitX=0.75;exitY=0;exitDx=0;exitDy=0;entryX=0.5;entryY=1;entryDx=0;entryDy=0;" parent="1" source="36CHgqRZ8Nkn75flzNOq-4" target="36CHgqRZ8Nkn75flzNOq-3" edge="1">
          <mxGeometry relative="1" as="geometry" />
        </mxCell>
        <mxCell id="36CHgqRZ8Nkn75flzNOq-7" style="edgeStyle=orthogonalEdgeStyle;rounded=0;orthogonalLoop=1;jettySize=auto;html=1;exitX=0.25;exitY=0;exitDx=0;exitDy=0;entryX=0.5;entryY=1;entryDx=0;entryDy=0;" parent="1" source="36CHgqRZ8Nkn75flzNOq-4" target="36CHgqRZ8Nkn75flzNOq-2" edge="1">
          <mxGeometry relative="1" as="geometry" />
        </mxCell>
        <mxCell id="36CHgqRZ8Nkn75flzNOq-4" value="Text" style="rounded=1;whiteSpace=wrap;html=1;fillColor=#FFCCCC;" parent="1" vertex="1">
          <mxGeometry x="450" y="710" width="100" height="40" as="geometry" />
        </mxCell>
        <mxCell id="36CHgqRZ8Nkn75flzNOq-8" style="edgeStyle=orthogonalEdgeStyle;rounded=0;orthogonalLoop=1;jettySize=auto;html=1;exitX=0.5;exitY=0;exitDx=0;exitDy=0;entryX=0.5;entryY=1;entryDx=0;entryDy=0;" parent="1" source="36CHgqRZ8Nkn75flzNOq-5" target="ZY9VDm7d7qytlSBRH4lO-1" edge="1">
          <mxGeometry relative="1" as="geometry" />
        </mxCell>
        <mxCell id="36CHgqRZ8Nkn75flzNOq-5" value="Acoustic" style="rounded=1;whiteSpace=wrap;html=1;fillColor=#FFCCCC;" parent="1" vertex="1">
          <mxGeometry x="205" y="710" width="100" height="40" as="geometry" />
        </mxCell>
        <mxCell id="36CHgqRZ8Nkn75flzNOq-14" style="edgeStyle=orthogonalEdgeStyle;rounded=0;orthogonalLoop=1;jettySize=auto;html=1;exitX=0.5;exitY=0;exitDx=0;exitDy=0;entryX=0.5;entryY=1;entryDx=0;entryDy=0;" parent="1" source="36CHgqRZ8Nkn75flzNOq-9" target="36CHgqRZ8Nkn75flzNOq-10" edge="1">
          <mxGeometry relative="1" as="geometry" />
        </mxCell>
        <mxCell id="36CHgqRZ8Nkn75flzNOq-9" value="Encode text and acoustic embedding" style="rounded=0;whiteSpace=wrap;html=1;fillColor=#FFCC99;" parent="1" vertex="1">
          <mxGeometry x="200" y="520" width="110" height="40" as="geometry" />
        </mxCell>
        <mxCell id="36CHgqRZ8Nkn75flzNOq-17" style="edgeStyle=orthogonalEdgeStyle;rounded=0;orthogonalLoop=1;jettySize=auto;html=1;exitX=0.5;exitY=0;exitDx=0;exitDy=0;entryX=1;entryY=0.5;entryDx=0;entryDy=0;" parent="1" source="36CHgqRZ8Nkn75flzNOq-10" target="36CHgqRZ8Nkn75flzNOq-16" edge="1">
          <mxGeometry relative="1" as="geometry" />
        </mxCell>
        <mxCell id="36CHgqRZ8Nkn75flzNOq-31" value="&lt;font color=&quot;#ff3333&quot; style=&quot;font-size: 18px;&quot;&gt;detach&lt;/font&gt;" style="edgeStyle=orthogonalEdgeStyle;rounded=0;orthogonalLoop=1;jettySize=auto;html=1;exitX=1;exitY=0.5;exitDx=0;exitDy=0;entryX=0;entryY=0.5;entryDx=0;entryDy=0;" parent="1" source="36CHgqRZ8Nkn75flzNOq-10" target="jOlZeWT1YY6VGwIaSscc-1" edge="1">
          <mxGeometry x="0.4615" relative="1" as="geometry">
            <mxPoint as="offset" />
          </mxGeometry>
        </mxCell>
        <mxCell id="36CHgqRZ8Nkn75flzNOq-10" value="Enhanced embedding" style="rounded=1;whiteSpace=wrap;html=1;fillColor=#FFCCCC;" parent="1" vertex="1">
          <mxGeometry x="205" y="440" width="100" height="30" as="geometry" />
        </mxCell>
        <mxCell id="36CHgqRZ8Nkn75flzNOq-16" value="L2 loss" style="rounded=0;whiteSpace=wrap;html=1;fillColor=#99FFFF;" parent="1" vertex="1">
          <mxGeometry x="60" y="400" width="100" height="30" as="geometry" />
        </mxCell>
        <mxCell id="36CHgqRZ8Nkn75flzNOq-25" style="edgeStyle=orthogonalEdgeStyle;rounded=0;orthogonalLoop=1;jettySize=auto;html=1;exitX=0.5;exitY=0;exitDx=0;exitDy=0;entryX=0.5;entryY=1;entryDx=0;entryDy=0;" parent="1" source="36CHgqRZ8Nkn75flzNOq-20" target="36CHgqRZ8Nkn75flzNOq-24" edge="1">
          <mxGeometry relative="1" as="geometry" />
        </mxCell>
        <mxCell id="36CHgqRZ8Nkn75flzNOq-27" style="edgeStyle=orthogonalEdgeStyle;rounded=0;orthogonalLoop=1;jettySize=auto;html=1;exitX=0.25;exitY=0;exitDx=0;exitDy=0;entryX=0.5;entryY=1;entryDx=0;entryDy=0;" parent="1" source="36CHgqRZ8Nkn75flzNOq-20" target="36CHgqRZ8Nkn75flzNOq-26" edge="1">
          <mxGeometry relative="1" as="geometry" />
        </mxCell>
        <mxCell id="jOlZeWT1YY6VGwIaSscc-10" style="edgeStyle=orthogonalEdgeStyle;rounded=0;orthogonalLoop=1;jettySize=auto;html=1;exitX=1;exitY=0.5;exitDx=0;exitDy=0;entryX=0;entryY=0.5;entryDx=0;entryDy=0;fontSize=18;fontColor=#FF6666;" parent="1" source="36CHgqRZ8Nkn75flzNOq-20" target="jOlZeWT1YY6VGwIaSscc-7" edge="1">
          <mxGeometry relative="1" as="geometry" />
        </mxCell>
        <mxCell id="36CHgqRZ8Nkn75flzNOq-20" value="joiner network" style="rounded=0;whiteSpace=wrap;html=1;fillColor=#FFCC99;" parent="1" vertex="1">
          <mxGeometry x="340" y="360" width="110" height="40" as="geometry" />
        </mxCell>
        <mxCell id="jOlZeWT1YY6VGwIaSscc-4" style="edgeStyle=orthogonalEdgeStyle;rounded=0;orthogonalLoop=1;jettySize=auto;html=1;exitX=0.75;exitY=1;exitDx=0;exitDy=0;entryX=0;entryY=0.5;entryDx=0;entryDy=0;" parent="1" source="36CHgqRZ8Nkn75flzNOq-24" target="36CHgqRZ8Nkn75flzNOq-28" edge="1">
          <mxGeometry relative="1" as="geometry" />
        </mxCell>
        <mxCell id="jOlZeWT1YY6VGwIaSscc-6" style="edgeStyle=orthogonalEdgeStyle;rounded=0;orthogonalLoop=1;jettySize=auto;html=1;exitX=1;exitY=0.5;exitDx=0;exitDy=0;entryX=0;entryY=0.5;entryDx=0;entryDy=0;" parent="1" source="36CHgqRZ8Nkn75flzNOq-24" target="36CHgqRZ8Nkn75flzNOq-32" edge="1">
          <mxGeometry relative="1" as="geometry" />
        </mxCell>
        <mxCell id="36CHgqRZ8Nkn75flzNOq-24" value="sampled paths" style="rounded=1;whiteSpace=wrap;html=1;fillColor=#FFCCCC;" parent="1" vertex="1">
          <mxGeometry x="345" y="250" width="100" height="30" as="geometry" />
        </mxCell>
        <mxCell id="36CHgqRZ8Nkn75flzNOq-26" value="Rnnt loss" style="rounded=0;whiteSpace=wrap;html=1;fillColor=#99FFFF;" parent="1" vertex="1">
          <mxGeometry x="180" y="250" width="100" height="30" as="geometry" />
        </mxCell>
        <mxCell id="36CHgqRZ8Nkn75flzNOq-34" style="edgeStyle=orthogonalEdgeStyle;rounded=0;orthogonalLoop=1;jettySize=auto;html=1;exitX=0.75;exitY=0;exitDx=0;exitDy=0;entryX=0.75;entryY=1;entryDx=0;entryDy=0;" parent="1" source="36CHgqRZ8Nkn75flzNOq-28" target="36CHgqRZ8Nkn75flzNOq-33" edge="1">
          <mxGeometry relative="1" as="geometry" />
        </mxCell>
        <mxCell id="36CHgqRZ8Nkn75flzNOq-28" value="pred wer" style="rounded=1;whiteSpace=wrap;html=1;" parent="1" vertex="1">
          <mxGeometry x="575" y="319" width="100" height="30" as="geometry" />
        </mxCell>
        <mxCell id="36CHgqRZ8Nkn75flzNOq-35" style="edgeStyle=orthogonalEdgeStyle;rounded=0;orthogonalLoop=1;jettySize=auto;html=1;exitX=1;exitY=0.5;exitDx=0;exitDy=0;entryX=0.25;entryY=1;entryDx=0;entryDy=0;" parent="1" source="36CHgqRZ8Nkn75flzNOq-32" target="36CHgqRZ8Nkn75flzNOq-33" edge="1">
          <mxGeometry relative="1" as="geometry" />
        </mxCell>
        <mxCell id="36CHgqRZ8Nkn75flzNOq-32" value="wer" style="rounded=1;whiteSpace=wrap;html=1;" parent="1" vertex="1">
          <mxGeometry x="480" y="250" width="100" height="30" as="geometry" />
        </mxCell>
        <mxCell id="jOlZeWT1YY6VGwIaSscc-9" value="&lt;font color=&quot;#ff6666&quot; style=&quot;font-size: 18px;&quot;&gt;detach&lt;/font&gt;" style="edgeStyle=orthogonalEdgeStyle;rounded=0;orthogonalLoop=1;jettySize=auto;html=1;exitX=1;exitY=0.5;exitDx=0;exitDy=0;entryX=0.5;entryY=0;entryDx=0;entryDy=0;" parent="1" source="36CHgqRZ8Nkn75flzNOq-33" target="jOlZeWT1YY6VGwIaSscc-7" edge="1">
          <mxGeometry relative="1" as="geometry" />
        </mxCell>
        <mxCell id="TpQpz7izhp5VcjBUrJp2-2" style="edgeStyle=orthogonalEdgeStyle;rounded=0;orthogonalLoop=1;jettySize=auto;html=1;exitX=0.5;exitY=0;exitDx=0;exitDy=0;entryX=0.5;entryY=1;entryDx=0;entryDy=0;" edge="1" parent="1" source="36CHgqRZ8Nkn75flzNOq-33" target="TpQpz7izhp5VcjBUrJp2-1">
          <mxGeometry relative="1" as="geometry" />
        </mxCell>
        <mxCell id="36CHgqRZ8Nkn75flzNOq-33" value="delta wer" style="rounded=0;whiteSpace=wrap;html=1;" parent="1" vertex="1">
          <mxGeometry x="575" y="200" width="100" height="30" as="geometry" />
        </mxCell>
        <mxCell id="jOlZeWT1YY6VGwIaSscc-5" style="edgeStyle=orthogonalEdgeStyle;rounded=0;orthogonalLoop=1;jettySize=auto;html=1;exitX=0.5;exitY=0;exitDx=0;exitDy=0;entryX=0.5;entryY=1;entryDx=0;entryDy=0;" parent="1" source="jOlZeWT1YY6VGwIaSscc-1" target="36CHgqRZ8Nkn75flzNOq-28" edge="1">
          <mxGeometry relative="1" as="geometry" />
        </mxCell>
        <mxCell id="jOlZeWT1YY6VGwIaSscc-1" value="quasi-joiner" style="rounded=0;whiteSpace=wrap;html=1;fillColor=#FFCC99;" parent="1" vertex="1">
          <mxGeometry x="560" y="430" width="110" height="40" as="geometry" />
        </mxCell>
        <mxCell id="jOlZeWT1YY6VGwIaSscc-7" value="predictor loss" style="rounded=0;whiteSpace=wrap;html=1;fillColor=#99FFFF;" parent="1" vertex="1">
          <mxGeometry x="676" y="365" width="100" height="30" as="geometry" />
        </mxCell>
        <mxCell id="TpQpz7izhp5VcjBUrJp2-1" value="delta wer loss" style="rounded=0;whiteSpace=wrap;html=1;fillColor=#99FFFF;" vertex="1" parent="1">
          <mxGeometry x="576" y="140" width="100" height="30" as="geometry" />
        </mxCell>
      </root>
    </mxGraphModel>
  </diagram>
</mxfile>
